# xmcd
#
# Track frame offsets: 
#        150
#        18387
#        37625
#        54215
#        77442
#        96137
#        116400
#        136290
#        156960
#        181940
#        202122
#        221695
#
# Disc length: 3228 seconds
#
# Revision: 1
# Processed by: cddbd v1.5.2PL0 Copyright (c) Steve Scherf et al.
# Submitted via: ExactAudioCopy v1.1
#
DISCID=920c9a0c
DTITLE=Oliver Serano-Alve - Vida Para Vida
DYEAR=1995
DGENRE=Electronic
TTITLE0=Dancer Of My Mind
TTITLE1=A Miracle On Saxophone
TTITLE2=Tocar Para Sarakali
TTITLE3=East European Liberty
TTITLE4=Alexander`s Journey To The East
TTITLE5=Touch Higher Musical Consciousness
TTITLE6=Vivekanda`s Journey To The West
TTITLE7=Macao Kyoto
TTITLE8=Brother Go On
TTITLE9=Oliver`s Higher Love
TTITLE10=Ling Dolma Shih-Tzu
TTITLE11=Vida Para Vida
EXTD=YEAR: 1995
EXTT0=
EXTT1=
EXTT2=
EXTT3=
EXTT4=
EXTT5=
EXTT6=
EXTT7=
EXTT8=
EXTT9=
EXTT10=
EXTT11=
PLAYORDER=
